<svg width="12" height="18" viewBox="0 0 12 18" fill="none" xmlns="http://www.w3.org/2000/svg">
<path d="M5.99999 8.58335C5.44746 8.58335 4.91755 8.36386 4.52685 7.97316C4.13615 7.58246 3.91666 7.05255 3.91666 6.50002C3.91666 5.94749 4.13615 5.41758 4.52685 5.02688C4.91755 4.63618 5.44746 4.41669 5.99999 4.41669C6.55252 4.41669 7.08243 4.63618 7.47313 5.02688C7.86383 5.41758 8.08332 5.94749 8.08332 6.50002C8.08332 6.77361 8.02944 7.04452 7.92474 7.29728C7.82004 7.55004 7.66658 7.7797 7.47313 7.97316C7.27967 8.16661 7.05001 8.32007 6.79725 8.42477C6.54449 8.52947 6.27358 8.58335 5.99999 8.58335ZM5.99999 0.666687C4.45289 0.666687 2.96916 1.28127 1.8752 2.37523C0.781238 3.46919 0.166656 4.95292 0.166656 6.50002C0.166656 10.875 5.99999 17.3334 5.99999 17.3334C5.99999 17.3334 11.8333 10.875 11.8333 6.50002C11.8333 4.95292 11.2187 3.46919 10.1248 2.37523C9.03082 1.28127 7.54709 0.666687 5.99999 0.666687Z" fill="black"/>
</svg>
